<?xml version="1.0" encoding="utf-8"?>
<svg xmlns="http://www.w3.org/2000/svg"
	xmlns:xlink="http://www.w3.org/1999/xlink"
	width="16px" height="16px" viewBox="0 0 16 16">
<g><path fillRule="evenodd" d="M 8 15C 11.86 15 15 11.86 15 8 15 4.14 11.86 1 8 1 4.14 1 1 4.14 1 8 1 11.86 4.14 15 8 15M 8 16C 3.58 16-0 12.42-0 8-0 3.58 3.58-0 8-0 12.42-0 16 3.58 16 8 16 12.42 12.42 16 8 16 8 16 8 16 8 16Z" fill="rgb(255,69,79)"/><path fillRule="evenodd" d="M 10.36 9.21C 10.36 9.21 8.89 7.74 8.89 7.74 8.89 7.74 10.27 6.37 10.27 6.37 10.59 6.04 10.59 5.52 10.27 5.19 9.94 4.87 9.42 4.87 9.09 5.19 9.09 5.19 7.72 6.57 7.72 6.57 7.72 6.57 6.25 5.1 6.25 5.1 5.93 4.77 5.4 4.77 5.08 5.1 4.75 5.42 4.75 5.95 5.08 6.27 5.08 6.27 6.54 7.74 6.54 7.74 6.54 7.74 4.98 9.3 4.98 9.3 4.66 9.63 4.66 10.15 4.98 10.48 5.31 10.8 5.83 10.8 6.16 10.48 6.16 10.48 7.72 8.91 7.72 8.91 7.72 8.91 9.19 10.38 9.19 10.38 9.51 10.71 10.04 10.71 10.36 10.38 10.68 10.06 10.68 9.53 10.36 9.21Z" fill="rgb(255,69,79)"/></g></svg>