<?xml version="1.0" encoding="utf-8"?>
<svg xmlns="http://www.w3.org/2000/svg"
	xmlns:xlink="http://www.w3.org/1999/xlink"
	width="16px" height="16px" viewBox="0 0 16 16">
<g><path fillRule="evenodd" d="M 8 15C 11.86 15 15 11.86 15 8 15 4.14 11.86 1 8 1 4.14 1 1 4.14 1 8 1 11.86 4.14 15 8 15M 8 16C 3.58 16-0 12.42-0 8-0 3.58 3.58-0 8-0 12.42-0 16 3.58 16 8 16 12.42 12.42 16 8 16 8 16 8 16 8 16Z" fill="rgb(0,179,135)"/><path fillRule="evenodd" d="M 10.54 5.53C 9.61 6.47 8.69 7.41 7.76 8.35 7.33 7.93 6.9 7.5 6.47 7.08 5.89 6.51 5 7.4 5.58 7.97 6.16 8.55 6.74 9.12 7.32 9.69 7.57 9.93 7.97 9.94 8.21 9.69 9.28 8.6 10.36 7.52 11.43 6.43 12 5.85 11.11 4.95 10.54 5.53Z" fill="rgb(0,179,135)"/></g></svg>