<?xml version="1.0" encoding="utf-8"?>
<!-- Generator: Adobe Illustrator 18.1.1, SVG Export Plug-In . SVG Version: 6.00 Build 0)  -->
<svg version="1.1" id="Layer_1" xmlns="http://www.w3.org/2000/svg" xmlns:xlink="http://www.w3.org/1999/xlink" x="0px" y="0px"
	 viewBox="0 0 24 24" enable-background="new 0 0 24 24" xml:space="preserve">
<path fill="#E53029" d="M12,0c0,0,7-0.3,10.8,6.8c-2,0-11.4,0-11.4,0s-2.1-0.1-4,2.5c-0.5,1.1-1.1,2.2-0.5,4.4
	C6,12.2,2.1,5.3,2.1,5.3S4.8,0.3,12,0z"/>
<path fill="#FDD900" d="M22.4,18c0,0-3.3,6.3-11.3,6c1-1.7,5.7-9.9,5.7-9.9s1.1-1.8-0.2-4.7c-0.7-1-1.4-2.1-3.6-2.6
	c1.8,0,9.7,0,9.7,0S25.7,11.7,22.4,18z"/>
<path fill="#66B44B" d="M1.6,18c0,0-3.8-5.9,0.5-12.7c1,1.7,5.7,9.9,5.7,9.9s1,1.9,4.2,2.2c1.2-0.1,2.5-0.2,4.1-1.8
	c-0.9,1.6-4.9,8.4-4.9,8.4S5.4,24.1,1.6,18z"/>
<path fill="#61AB48" d="M11.1,24l1.6-6.7c0,0,1.8-0.1,3.2-1.8C15.1,17.2,11.1,24,11.1,24z"/>
<circle fill="#FFFFFF" cx="11.9" cy="12.1" r="5.3"/>
<linearGradient id="SVGID_1_" gradientUnits="userSpaceOnUse" x1="11.9393" y1="7.6969" x2="11.9393" y2="16.2498">
	<stop  offset="0" style="stop-color:#86BBE5"/>
	<stop  offset="1" style="stop-color:#116CB3"/>
</linearGradient>
<circle fill="url(#SVGID_1_)" cx="11.9" cy="12.1" r="4.4"/>
<path fill="#F0CE00" d="M22.7,6.8l-6.6,1.9c0,0-1-1.5-3.1-1.9C14.9,6.7,22.7,6.8,22.7,6.8z"/>
<path fill="#D92F27" d="M6.8,13.5c-0.9-1.6-4.7-8.2-4.7-8.2l4.9,4.8c0,0-0.5,1-0.3,2.5L6.8,13.5z"/>
</svg>
