<?xml version="1.0" encoding="utf-8"?>
<!-- Generator: Adobe Illustrator 18.1.1, SVG Export Plug-In . SVG Version: 6.00 Build 0)  -->
<svg version="1.1" id="Layer_1" xmlns="http://www.w3.org/2000/svg" xmlns:xlink="http://www.w3.org/1999/xlink" x="0px" y="0px"
	 viewBox="0 0 24 24" enable-background="new 0 0 24 24" xml:space="preserve">
<path fill="#3078BB" d="M5.5,6.4C2.6,8.1,1,10.7,1,10.7s0.4-5.3,4.5-8.4C7.1,1,9.3,0,12.2,0c1.1,0,3.4,0.2,5.5,1.5
	c2.1,1.3,2.9,2.4,3.9,4c0.4,0.7,0.7,1.6,0.9,2.4C23,9.5,23,11.4,23,11.4v2.5H8c0,0-0.4,5.1,6.5,5.1c2.4,0,3.2-0.4,4-0.6
	c1.2-0.4,2.4-1.2,2.4-1.2l0,5.1c0,0-2.8,1.7-7.1,1.7c-1.2,0-2.5-0.1-3.7-0.5c-1.1-0.3-3.3-1.3-4.8-3.5c-0.5-0.8-1.1-1.8-1.4-2.8
	c-0.3-1.1-0.3-2.2-0.3-2.7c0-2.2,0.7-4.3,2-5.8c1.7-2,3.8-2.8,3.8-2.8S8.9,6.7,8.5,7.7s-0.5,2-0.5,2h8.5c0,0,0.5-5.1-4.8-5.1
	C9.6,4.6,7.2,5.3,5.5,6.4z"/>
</svg>
