<?xml version="1.0" encoding="utf-8"?>
<!-- Generator: Adobe Illustrator 18.1.1, SVG Export Plug-In . SVG Version: 6.00 Build 0)  -->
<svg version="1.1" id="Layer_1" xmlns="http://www.w3.org/2000/svg" xmlns:xlink="http://www.w3.org/1999/xlink" x="0px" y="0px"
	 viewBox="0 0 24 24" enable-background="new 0 0 24 24" xml:space="preserve">
<path fill="#006EB7" d="M22.7,5.4C24.9-0.4,20.6,0,20.6,0c-2.8,0-6.2,2.5-6.2,2.5s-4.1-1.1-8.3,1.4c-4.5,2.9-4.3,8-4.3,8
	c3.7-5.2,8.7-7.4,8.7-7.4v0.3C3,10,1.3,17.5,0.8,19c-0.4,1.5-0.1,5,3,5c3.2,0,6.4-2.5,6.4-2.5s0.7,0.1,2.6,0.1c7.9,0,9.8-7,9.8-7h-7
	c0,0-0.5,2.3-3,2.3c-3.5,0-3.3-3.6-3.3-3.6h13.4C23.3,4,15.2,2.7,15.2,2.7s2.9-2,5.3-2c3.9,0,2.1,4.6,2.1,4.6L22.7,5.4z M9.8,21.3
	c0,0-4.8,2.9-7,0.9c-1.2-2,0.7-4.9,0.7-4.9S5.1,20.3,9.8,21.3z M15.6,10.1H9.2c0,0-0.1-3.1,3.3-3.1C15.7,7,15.6,10.1,15.6,10.1z"/>
</svg>
