<?xml version="1.0" encoding="utf-8"?>
<!-- Generator: Adobe Illustrator 19.0.0, SVG Export Plug-In . SVG Version: 6.00 Build 0)  -->
<svg version="1.1" id="Layer_1" xmlns="http://www.w3.org/2000/svg" xmlns:xlink="http://www.w3.org/1999/xlink" x="0px" y="0px"
	 viewBox="-337 339 24 24" style="enable-background:new -337 339 24 24;" xml:space="preserve">
<style type="text/css">
	.st0{fill:#CCCCCC;}
	.st1{fill:#9F9B9B;}
	.st2{fill:#706A6A;}
	.st3{fill:#FFFFFF;}
</style>
<g>
	<circle class="st0" cx="-325.4" cy="351.2" r="11.2"/>
	<path class="st1" d="M-325.2,341.3c0.1,0,0.1,0,0.2,0c0.6,0.1,1.1,0.4,1.7,1.1c0.6,0.8,1.2,2,1.6,3.6c-1,0.2-2.2,0.3-3.3,0.3
		c-1.2,0-2.5-0.1-3.6-0.3c0.2-0.6,0.4-1.2,0.6-1.8c0.6-1.5,1.5-2.5,2.3-2.8C-325.5,341.4-325.4,341.3-325.2,341.3L-325.2,341.3z"/>
	<path class="st1" d="M-323,341.6c2.1,0.5,3.9,1.6,5.3,3.2c-0.9,0.4-2,0.8-3.2,1.1c-0.4-1.7-1-3-1.8-3.9
		C-322.8,341.8-322.9,341.7-323,341.6z"/>
	<path class="st1" d="M-327.4,341.6c-0.6,0.6-1,1.4-1.4,2.3c-0.2,0.6-0.5,1.2-0.6,1.9c-1.2-0.3-2.3-0.6-3.2-1.1
		C-331.3,343.2-329.4,342-327.4,341.6L-327.4,341.6z"/>
	<path class="st1" d="M-317.2,345.4c0.3,0.4,0.5,0.8,0.8,1.3c-0.8-0.3-1.7-0.5-2.5-0.5c-0.1,0-0.1,0-0.2,0
		C-318.4,346-317.8,345.7-317.2,345.4L-317.2,345.4z"/>
	<path class="st1" d="M-333.2,345.4c1,0.5,2.2,0.9,3.5,1.2c-0.2,1-0.4,2.1-0.4,3.3c0,0.4,0,0.8,0,1.2h-4.9c0-0.6,0-1.2,0.2-1.7
		C-334.6,347.9-334,346.6-333.2,345.4L-333.2,345.4z"/>
	<path class="st2" d="M-318.7,349.1c1.1,0,2.2,0.6,2.8,1.6c0.1,0.1,0.1,0.3,0.2,0.5h-6.1c0.3-0.7,0.7-1.3,1.4-1.6
		c0.4-0.2,0.8-0.4,1.2-0.4C-319,349.1-318.9,349.1-318.7,349.1L-318.7,349.1z"/>
	<path class="st1" d="M-335,352h4.9c0.1,1.6,0.3,3.1,0.6,4.5c-1.2,0.2-2.3,0.6-3.2,1C-334,356-334.8,354-335,352z"/>
	<path class="st1" d="M-329.2,352h4.3c-0.1,1.2,0.2,2.4,0.8,3.4c0.1,0.3,0.3,0.5,0.5,0.7c-1.7-0.1-3.4,0-5,0.2
		C-329,355-329.2,353.5-329.2,352L-329.2,352z"/>
	<path class="st2" d="M-322.1,352h6.5c0.1,1.3-0.5,2.5-1.6,3.2c-1.6,0.9-3.6,0.4-4.5-1.2C-322,353.3-322.1,352.6-322.1,352z"/>
	<path class="st1" d="M-325.5,356.9c0.9,0,1.8,0,2.7,0.1c0.2,0.2,0.4,0.4,0.7,0.5c-0.6,1.6-1.4,2.7-2.1,3.2
		c-0.2,0.1-0.5,0.2-0.7,0.3c-0.2,0-0.3,0-0.5,0c-0.4-0.1-0.8-0.3-1.2-0.7c-0.7-0.7-1.3-1.8-1.8-3.2
		C-327.4,357-326.5,356.9-325.5,356.9L-325.5,356.9z"/>
	<path class="st1" d="M-329.2,357.3c0.5,1.4,1.1,2.6,1.9,3.5c-0.7-0.2-1.4-0.4-2.1-0.7c-1-0.5-1.9-1.1-2.7-1.9
		C-331.3,357.8-330.3,357.5-329.2,357.3z"/>
	<path class="st1" d="M-321.3,357.9c0.9,0.4,1.8,0.6,2.8,0.6c-1.3,1.1-2.8,1.9-4.4,2.3C-322.3,360.1-321.8,359.1-321.3,357.9z"/>
	<path class="st1" d="M-328.8,346.8c1.2,0.2,2.5,0.3,3.8,0.3c1.2,0,2.4-0.1,3.5-0.3c0,0,0,0,0,0.1c-0.1,0.1-0.2,0.1-0.4,0.2
		c-1.6,0.9-2.6,2.5-3,4.2h-4.4c0-0.4,0-0.8,0-1.2C-329.2,348.8-329,347.7-328.8,346.8L-328.8,346.8z"/>
	<path class="st1" d="M-318.9,347c1.9,0,3.7,0.9,4.8,2.7c1.5,2.6,0.6,5.8-2,7.3s-5.8,0.6-7.3-2c-1.5-2.6-0.6-5.8,2-7.3
		C-320.6,347.3-319.7,347-318.9,347z"/>
	<path class="st1" d="M-317.7,351.4l3.6,9c0.1,0.3,0,0.7-0.3,0.8s-0.7,0-0.8-0.3l-3.6-9c0.1,0,0.3-0.1,0.4-0.1
		C-318.2,351.7-317.9,351.5-317.7,351.4z"/>
	<path class="st3" d="M-318.6,348.2c-0.2,0-0.4,0-0.6,0c-0.5,0.1-1.1,0.3-1.5,0.5c-2,1.1-2.6,3.6-1.5,5.6c1.1,2,3.7,2.6,5.6,1.5
		c2-1.1,2.6-3.7,1.5-5.6C-315.9,349-317.2,348.3-318.6,348.2L-318.6,348.2z"/>
</g>
</svg>
