<?xml version="1.0" encoding="utf-8"?>
<!-- Generator: Adobe Illustrator 18.1.1, SVG Export Plug-In . SVG Version: 6.00 Build 0)  -->
<svg version="1.1" id="Layer_1" xmlns="http://www.w3.org/2000/svg" xmlns:xlink="http://www.w3.org/1999/xlink" x="0px" y="0px"
	 viewBox="0 0 24 24" enable-background="new 0 0 24 24" xml:space="preserve">
<g>
	<defs>
		<path id="SVGID_1_" d="M12,0C5.4,0,0,5.4,0,12c0,6.4,5.1,11.7,11.4,12c0.2,0,0.4,0,0.6,0c3.1,0,5.9-1.2,8-3.1
			c-1.4,0.9-3.1,1.5-4.8,1.5c-2.9,0-5.4-1.4-7.1-3.7c-1.3-1.6-2.2-3.9-2.2-6.5c0,0,0-0.6,0-0.6c0.1-2.6,0.9-4.9,2.2-6.5
			c1.7-2.2,4.3-3.7,7.1-3.7c1.8,0,3.4,0.5,4.8,1.5C17.9,1.2,15.1,0,12,0C12,0,12,0,12,0z"/>
	</defs>
	<clipPath id="SVGID_2_">
		<use xlink:href="#SVGID_1_"  overflow="visible"/>
	</clipPath>
	
		<linearGradient id="SVGID_3_" gradientUnits="userSpaceOnUse" x1="-30.3746" y1="73.0484" x2="-30.076" y2="73.0484" gradientTransform="matrix(0 77.9173 77.9173 0 -5681.7295 2367.0942)">
		<stop  offset="0" style="stop-color:#FF1B2D"/>
		<stop  offset="0.3" style="stop-color:#FF1B2D"/>
		<stop  offset="0.4381" style="stop-color:#FA1A2C"/>
		<stop  offset="0.5939" style="stop-color:#ED1528"/>
		<stop  offset="0.7581" style="stop-color:#D60E21"/>
		<stop  offset="0.9272" style="stop-color:#B70519"/>
		<stop  offset="1" style="stop-color:#A70014"/>
	</linearGradient>
	<rect y="0" clip-path="url(#SVGID_2_)" fill="url(#SVGID_3_)" width="20" height="24"/>
</g>
<g>
	<defs>
		<path id="SVGID_4_" d="M8.1,5.2c1.1-1.3,2.5-2.1,4.1-2.1c3.5,0,6.3,4,6.3,8.8c0,4.9-2.8,8.8-6.3,8.8c-1.6,0-3-0.8-4.1-2.1
			c1.7,2.2,4.3,3.7,7.1,3.7c1.8,0,3.4-0.5,4.8-1.5c2.5-2.2,4-5.4,4-8.9c0-3.6-1.5-6.7-4-8.9c-1.4-0.9-3.1-1.5-4.8-1.5
			C12.3,1.6,9.8,3,8.1,5.2"/>
	</defs>
	<clipPath id="SVGID_5_">
		<use xlink:href="#SVGID_4_"  overflow="visible"/>
	</clipPath>
	
		<linearGradient id="SVGID_6_" gradientUnits="userSpaceOnUse" x1="-30.3396" y1="72.8492" x2="-30.0411" y2="72.8492" gradientTransform="matrix(0 68.914 68.914 0 -5004.3052 2092.5857)">
		<stop  offset="0" style="stop-color:#9C0000"/>
		<stop  offset="0.7" style="stop-color:#FF4B4B"/>
		<stop  offset="1" style="stop-color:#FF4B4B"/>
	</linearGradient>
	<rect x="8.1" y="1.6" clip-path="url(#SVGID_5_)" fill="url(#SVGID_6_)" width="15.9" height="20.8"/>
</g>
</svg>
