<svg xmlns="http://www.w3.org/2000/svg" xmlns:xlink="http://www.w3.org/1999/xlink" preserveAspectRatio="xMidYMid" width="20.969" height="20.969" viewBox="0 0 20.969 20.969">
  <defs>
    <style>
      .cls-1 {
        fill: #999;
        fill-rule: evenodd;
      }
    </style>
  </defs>
  <path d="M10.393,20.970 L14.756,13.579 C15.371,12.704 15.710,11.870 15.710,10.724 C15.710,9.208 14.188,7.000 14.188,7.000 L20.188,7.000 C20.664,7.000 20.971,9.415 20.971,10.782 C20.971,16.593 16.242,20.905 10.393,20.970 ZM5.192,9.199 L2.132,3.916 C4.092,1.485 7.108,-0.014 10.491,-0.014 C14.407,-0.014 17.829,2.276 19.692,5.301 L10.967,5.301 C10.810,5.301 5.872,5.301 5.192,9.199 ZM6.606,10.256 C6.606,8.135 8.348,6.407 10.491,6.407 C12.634,6.407 14.376,8.133 14.376,10.256 C14.376,12.378 12.632,14.106 10.491,14.106 C8.350,14.106 6.606,12.380 6.606,10.256 ZM10.700,15.680 C11.206,15.680 11.699,15.611 12.166,15.481 L9.104,20.737 C3.956,19.973 0.006,15.572 0.006,10.259 C0.006,8.370 0.503,6.599 1.379,5.064 L5.743,12.557 C6.619,14.400 8.511,15.680 10.700,15.680 Z" class="cls-1"/>
</svg>
