<svg xmlns="http://www.w3.org/2000/svg" xmlns:xlink="http://www.w3.org/1999/xlink" preserveAspectRatio="xMidYMid" width="19.031" height="20.75" viewBox="0 0 19.031 20.75">
  <defs>
    <style>
      .cls-1 {
        fill: #999;
        fill-rule: evenodd;
      }
    </style>
  </defs>
  <path d="M7.316,5.130 C6.577,6.073 6.154,7.135 5.998,8.331 C8.439,8.331 10.860,8.331 13.306,8.331 C13.340,7.677 13.264,7.045 13.061,6.431 C12.563,4.928 11.477,4.180 9.957,3.994 C8.059,3.763 6.306,4.258 4.623,5.083 C2.859,5.946 1.419,7.201 0.284,8.813 C0.212,8.916 0.138,9.017 0.064,9.120 C0.045,9.114 0.025,9.108 0.006,9.102 C0.060,8.777 0.104,8.449 0.169,8.126 C0.700,5.513 1.947,3.343 4.102,1.753 C5.507,0.716 7.105,0.191 8.829,0.029 C11.261,-0.201 13.464,0.420 15.416,1.889 C17.299,3.307 18.352,5.255 18.828,7.545 C19.014,8.440 19.031,9.348 19.025,10.257 C19.021,10.844 19.024,11.430 19.024,12.039 C14.718,12.039 10.415,12.039 6.052,12.039 C6.095,12.388 6.107,12.715 6.178,13.029 C6.526,14.557 7.532,15.484 8.940,16.005 C9.988,16.393 11.088,16.459 12.193,16.419 C13.940,16.356 15.561,15.847 17.075,14.977 C17.128,14.946 17.186,14.922 17.277,14.877 C17.285,14.987 17.295,15.070 17.295,15.153 C17.297,16.423 17.293,17.694 17.302,18.964 C17.304,19.193 17.211,19.311 17.015,19.407 C14.987,20.401 12.839,20.810 10.596,20.748 C8.303,20.684 6.291,19.911 4.650,18.269 C3.276,16.894 2.559,15.203 2.404,13.263 C2.240,11.209 2.730,9.340 3.969,7.691 C4.826,6.552 5.935,5.731 7.228,5.157 C7.256,5.144 7.286,5.139 7.316,5.130 Z" class="cls-1"/>
</svg>
