<svg xmlns="http://www.w3.org/2000/svg" xmlns:xlink="http://www.w3.org/1999/xlink" preserveAspectRatio="xMidYMid" width="20.906" height="20.188" viewBox="0 0 20.906 20.188">
  <defs>
    <style>
      .cls-1 {
        fill: #999;
        fill-rule: evenodd;
      }
    </style>
  </defs>
  <path d="M15.769,11.699 L20.848,11.699 C20.887,11.347 20.904,10.989 20.904,10.620 C20.904,8.899 20.440,7.283 19.631,5.891 C20.468,3.673 20.438,1.791 19.317,0.666 C18.253,-0.389 15.395,-0.219 12.165,1.209 C11.926,1.192 11.684,1.182 11.441,1.182 C7.006,1.182 3.287,4.225 2.258,8.327 C3.648,6.550 5.112,5.263 7.066,4.325 C6.889,4.491 5.851,5.521 5.675,5.693 C0.523,10.836 -1.102,17.551 0.647,19.296 C1.976,20.622 4.385,20.398 7.154,19.047 C8.440,19.701 9.897,20.070 11.441,20.070 C15.596,20.070 19.118,17.402 20.395,13.685 L15.277,13.685 C14.572,14.981 13.197,15.863 11.614,15.863 C10.033,15.863 8.655,14.981 7.950,13.685 C7.637,13.099 7.457,12.428 7.457,11.718 L7.457,11.703 L15.769,11.699 L15.769,11.699 ZM7.466,9.210 C7.583,7.123 9.320,5.461 11.441,5.461 C13.562,5.461 15.299,7.123 15.416,9.210 L7.466,9.210 ZM19.272,1.717 C19.994,2.443 19.975,3.782 19.357,5.453 C18.300,3.844 16.764,2.578 14.951,1.853 C16.890,1.024 18.467,0.913 19.272,1.717 L19.272,1.717 ZM1.982,18.966 C1.062,18.047 1.339,16.119 2.525,13.796 C3.264,15.863 4.701,17.598 6.556,18.714 C4.501,19.646 2.822,19.804 1.982,18.966 L1.982,18.966 Z" class="cls-1"/>
</svg>
