<svg xmlns="http://www.w3.org/2000/svg" xmlns:xlink="http://www.w3.org/1999/xlink" preserveAspectRatio="xMidYMid" width="19.969" height="21" viewBox="0 0 19.969 21">
  <defs>
    <style>
      .cls-1 {
        fill: #999;
        fill-rule: evenodd;
      }
    </style>
  </defs>
  <path d="M17.131,2.871 C19.023,4.785 19.969,7.301 19.969,10.418 C19.969,13.262 19.023,15.736 17.131,17.841 C15.239,19.947 12.843,21.000 9.942,21.000 C7.069,21.000 4.693,19.947 2.815,17.842 C0.937,15.736 -0.002,13.262 -0.002,10.418 C-0.002,7.301 0.923,4.785 2.775,2.871 C4.625,0.957 7.014,0.000 9.942,0.000 C12.843,0.000 15.239,0.957 17.131,2.871 ZM13.506,7.259 C13.423,6.412 13.257,5.585 13.008,4.778 C12.760,3.972 12.380,3.350 11.869,2.912 C11.357,2.475 10.716,2.255 9.942,2.255 C9.169,2.255 8.534,2.467 8.036,2.891 C7.539,3.316 7.173,3.937 6.939,4.758 C6.704,5.578 6.545,6.398 6.462,7.219 C6.379,8.039 6.337,9.037 6.337,10.213 C6.337,10.951 6.351,11.573 6.379,12.079 C6.405,12.585 6.454,13.201 6.524,13.924 C6.592,14.649 6.704,15.257 6.855,15.749 C7.007,16.241 7.214,16.727 7.477,17.206 C7.739,17.684 8.078,18.046 8.492,18.292 C8.906,18.538 9.389,18.661 9.942,18.661 C10.494,18.661 10.984,18.538 11.413,18.292 C11.841,18.046 12.186,17.684 12.449,17.206 C12.711,16.728 12.926,16.242 13.092,15.750 C13.257,15.258 13.382,14.649 13.464,13.925 C13.548,13.201 13.595,12.578 13.610,12.059 C13.623,11.540 13.630,10.924 13.630,10.213 C13.630,9.092 13.589,8.107 13.506,7.259 Z" class="cls-1"/>
</svg>
