<svg xmlns="http://www.w3.org/2000/svg" xmlns:xlink="http://www.w3.org/1999/xlink" preserveAspectRatio="xMidYMid" width="15.69" height="20.531" viewBox="0 0 15.69 20.531">
  <defs>
    <style>
      .cls-1 {
        fill: #000;
        fill-rule: evenodd;
      }
    </style>
  </defs>
  <path d="M13.155,20.525 L2.508,20.525 C1.115,20.525 -0.014,19.447 -0.014,18.117 L-0.014,2.394 C-0.014,1.064 1.115,-0.014 2.508,-0.014 L13.155,-0.014 C14.548,-0.014 15.678,1.064 15.678,2.394 L15.678,18.117 C15.678,19.447 14.548,20.525 13.155,20.525 ZM14.781,2.394 C14.781,1.537 14.053,0.842 13.155,0.842 L2.508,0.842 C1.610,0.842 0.882,1.537 0.882,2.394 L0.882,18.117 C0.882,18.974 1.610,19.669 2.508,19.669 L13.155,19.669 C14.053,19.669 14.781,18.974 14.781,18.117 L14.781,2.394 ZM12.570,15.797 C12.500,15.811 12.427,15.818 12.352,15.818 L3.311,15.818 C3.237,15.818 3.164,15.811 3.093,15.797 C2.599,15.700 2.227,15.283 2.227,14.784 L2.227,3.160 C2.227,2.660 2.599,2.243 3.093,2.147 C3.163,2.133 3.236,2.126 3.311,2.126 L12.352,2.126 C12.427,2.126 12.500,2.133 12.571,2.147 C13.064,2.244 13.436,2.660 13.436,3.160 L13.436,14.784 C13.436,15.284 13.064,15.701 12.570,15.797 ZM12.539,3.160 C12.539,3.086 12.492,3.023 12.425,2.996 C12.402,2.987 12.378,2.982 12.352,2.982 L3.311,2.982 C3.285,2.982 3.261,2.987 3.238,2.995 C3.171,3.023 3.124,3.086 3.124,3.160 L3.124,14.784 C3.124,14.857 3.171,14.921 3.238,14.948 C3.260,14.957 3.285,14.962 3.311,14.962 L12.352,14.962 C12.378,14.962 12.402,14.957 12.425,14.949 C12.492,14.921 12.539,14.858 12.539,14.784 L12.539,3.160 ZM7.820,16.929 C8.231,16.929 8.565,17.248 8.565,17.640 C8.565,18.033 8.231,18.351 7.820,18.351 C7.408,18.351 7.074,18.033 7.074,17.640 C7.074,17.248 7.408,16.929 7.820,16.929 Z" class="cls-1"/>
</svg>
