<svg xmlns="http://www.w3.org/2000/svg" xmlns:xlink="http://www.w3.org/1999/xlink" preserveAspectRatio="xMidYMid" width="22.78" height="22.25" viewBox="0 0 22.78 22.25">
  <defs>
    <style>
      .cls-1 {
        fill: #000;
        fill-rule: evenodd;
      }
    </style>
  </defs>
  <path d="M21.138,5.392 L21.138,5.381 L21.132,5.381 C19.135,2.161 15.514,0.005 11.386,0.005 C5.108,0.005 0.001,4.994 0.001,11.126 C0.001,13.219 0.597,15.178 1.631,16.853 L1.631,16.870 L1.641,16.870 C3.638,20.090 7.259,22.246 11.387,22.246 C17.665,22.246 22.772,17.257 22.772,11.126 C22.772,9.029 22.175,7.067 21.138,5.392 ZM9.468,0.912 C9.970,0.822 10.485,0.767 11.010,0.749 L11.010,5.381 L6.168,5.381 C6.916,3.325 8.064,1.722 9.468,0.912 ZM11.010,6.116 L11.010,10.758 L5.216,10.758 C5.248,9.099 5.497,7.521 5.923,6.116 L11.010,6.116 ZM7.691,1.388 C6.728,2.390 5.939,3.768 5.380,5.381 L2.534,5.381 C3.769,3.570 5.571,2.158 7.691,1.388 ZM2.076,6.116 L5.147,6.116 C4.735,7.538 4.494,9.112 4.463,10.758 L0.763,10.758 C0.823,9.079 1.291,7.502 2.076,6.116 ZM0.763,11.493 L4.463,11.493 C4.494,13.139 4.735,14.713 5.147,16.134 L2.076,16.134 C1.291,14.749 0.823,13.171 0.763,11.493 ZM2.534,16.870 L5.380,16.870 C5.939,18.483 6.728,19.861 7.691,20.863 C5.571,20.093 3.769,18.681 2.534,16.870 ZM11.010,21.502 C10.486,21.484 9.971,21.429 9.469,21.339 C8.065,20.530 6.916,18.926 6.168,16.870 L11.010,16.870 L11.010,21.502 ZM11.010,16.134 L5.923,16.134 C5.497,14.730 5.248,13.152 5.216,11.493 L11.010,11.493 L11.010,16.134 ZM22.009,10.758 L18.309,10.758 C18.278,9.112 18.038,7.538 17.625,6.116 L20.697,6.116 C21.481,7.502 21.949,9.079 22.009,10.758 ZM20.239,5.381 L17.392,5.381 C16.834,3.768 16.045,2.390 15.083,1.388 C17.202,2.158 19.003,3.570 20.239,5.381 ZM11.763,0.749 C12.288,0.767 12.803,0.822 13.305,0.913 C14.709,1.722 15.856,3.325 16.605,5.381 L11.763,5.381 L11.763,0.749 ZM11.763,6.116 L16.850,6.116 C17.275,7.521 17.524,9.099 17.557,10.758 L11.763,10.758 L11.763,6.116 ZM11.763,11.493 L17.557,11.493 C17.524,13.152 17.275,14.730 16.850,16.134 L11.763,16.134 L11.763,11.493 ZM13.304,21.338 C12.802,21.428 12.287,21.484 11.763,21.501 L11.763,16.870 L16.605,16.870 C15.856,18.926 14.708,20.530 13.304,21.338 ZM15.082,20.863 C16.045,19.861 16.834,18.483 17.392,16.870 L20.239,16.870 C19.003,18.681 17.202,20.093 15.082,20.863 ZM17.626,16.134 C18.038,14.713 18.278,13.139 18.309,11.493 L22.009,11.493 C21.949,13.171 21.481,14.749 20.697,16.134 L17.626,16.134 Z" class="cls-1"/>
</svg>
