<?xml version="1.0" encoding="utf-8"?>
<!-- Generator: Adobe Illustrator 18.1.1, SVG Export Plug-In . SVG Version: 6.00 Build 0)  -->
<svg version="1.1" id="Layer_1" xmlns="http://www.w3.org/2000/svg" xmlns:xlink="http://www.w3.org/1999/xlink" x="0px" y="0px"
	 viewBox="0 0 16 16" enable-background="new 0 0 16 16" xml:space="preserve">
<path fill-rule="evenodd" clip-rule="evenodd" fill="#020202" d="M11,16H5c-1.1,0-2-0.9-2-2V2c0-1.1,0.9-2,2-2h6c1.1,0,2,0.9,2,2v12
	C13,15.1,12.1,16,11,16z M5,13c0,0.6,0.4,1,1,1h4c0.6,0,1-0.4,1-1v-2H5V13z M5,10h6V4H5V10z M10,2H6C5.4,2,5,2.4,5,3h6
	C11,2.4,10.6,2,10,2z M7,12h2v1H7V12z"/>
</svg>
