<?xml version="1.0" encoding="utf-8"?>
<!-- Generator: Adobe Illustrator 18.1.1, SVG Export Plug-In . SVG Version: 6.00 Build 0)  -->
<svg version="1.1" id="Layer_1" xmlns="http://www.w3.org/2000/svg" xmlns:xlink="http://www.w3.org/1999/xlink" x="0px" y="0px"
	 viewBox="0 0 16 16" enable-background="new 0 0 16 16" xml:space="preserve">
<g>
	<g>
		<path fill-rule="evenodd" clip-rule="evenodd" fill="#020202" d="M8,0C3.6,0,0,3.6,0,8c0,4.4,3.6,8,8,8s8-3.6,8-8
			C16,3.6,12.4,0,8,0z M11.9,9.7C12,9.2,12,8.6,12,8s0-1.2-0.1-1.7C13.2,6.6,14,7.1,14,8S13.2,9.4,11.9,9.7z M2,8
			c0-0.9,0.8-1.4,2.1-1.7C4,6.8,4,7.4,4,8s0,1.2,0.1,1.7C2.8,9.4,2,8.9,2,8z M5,8c0-0.7,0.1-1.3,0.2-1.9C6,6,7,6,8,6s2,0,2.8,0.1
			C10.9,6.7,11,7.3,11,8s-0.1,1.3-0.2,1.9C10,10,9,10,8,10s-2,0-2.8-0.1C5.1,9.3,5,8.7,5,8z M13.5,5.6c-0.5-0.2-1.1-0.3-1.8-0.4
			c-0.2-0.9-0.4-1.7-0.7-2.4C12.1,3.5,13,4.5,13.5,5.6z M8,2c1.1,0,2.1,1.3,2.6,3.1C9.8,5,8.9,5,8,5S6.2,5,5.4,5.1
			C5.9,3.3,6.9,2,8,2z M4.9,2.8C4.6,3.5,4.4,4.4,4.2,5.2C3.6,5.3,3,5.5,2.5,5.6C3,4.5,3.9,3.5,4.9,2.8z M2.5,10.4
			c0.5,0.2,1.1,0.3,1.8,0.4c0.2,0.9,0.4,1.7,0.7,2.4C3.9,12.5,3,11.5,2.5,10.4z M8,14c-1.1,0-2.1-1.3-2.6-3.1C6.2,11,7.1,11,8,11
			s1.8,0,2.6-0.1C10.1,12.7,9.1,14,8,14z M11.1,13.2c0.3-0.7,0.5-1.5,0.7-2.4c0.6-0.1,1.2-0.2,1.8-0.4C13,11.5,12.1,12.5,11.1,13.2z
			"/>
	</g>
</g>
</svg>
