<?xml version="1.0" encoding="utf-8"?>
<!-- Generator: Adobe Illustrator 18.1.1, SVG Export Plug-In . SVG Version: 6.00 Build 0)  -->
<svg version="1.1" id="Layer_1" xmlns="http://www.w3.org/2000/svg" xmlns:xlink="http://www.w3.org/1999/xlink" x="0px" y="0px"
	 viewBox="0 0 24 24" enable-background="new 0 0 24 24" xml:space="preserve">
<path fill-rule="evenodd" clip-rule="evenodd" d="M20.9,1.5c-2.2,0.3-4.3,0.6-6.3,0.9c-1.9,0.3-3.3,0.5-5,0.7c0,1.4,0,2.8,0,4.2
	c0,1.4,0,2.8,0,4.2c1.7,0,3.1,0,5,0c2,0,4.1,0,6.3,0c0-1.7,0-3.3,0-5S20.9,3.2,20.9,1.5L20.9,1.5z M8.6,3.3C7.1,3.5,5.2,3.7,3.8,3.9
	C2.5,4.1,1.2,4.3,0,4.4C0,5.6,0,6.8,0,8c0,1.2,0,2.4,0,3.6c1.2,0,2.5,0,3.8,0c1.4,0,3.2,0,4.8,0c0-1.4,0-2.8,0-4.2S8.6,4.7,8.6,3.3
	L8.6,3.3z M0,12.3c0,1.2,0,2.4,0,3.6c0,1.2,0,2.4,0,3.6c1.2,0.2,2.5,0.4,3.8,0.5c1.4,0.2,3.2,0.4,4.8,0.6c0-1.4,0-2.8,0-4.1
	c0-1.4,0-2.8,0-4.2c-1.6,0-3.4,0-4.8,0C2.5,12.4,1.2,12.4,0,12.3L0,12.3z M9.6,20.8c1.7,0.2,3.1,0.5,5,0.7c2,0.3,4.1,0.6,6.3,0.9
	c0-1.7,0-3.3,0-5c0-1.7,0-3.3,0-5c-2.2,0-4.3,0-6.3,0c-1.9,0-3.3,0-5,0c0,1.4,0,2.8,0,4.2C9.6,18,9.6,19.4,9.6,20.8z"/>
<path fill-rule="evenodd" clip-rule="evenodd" d="M22.1,22.5v-1.1h-0.4v-0.1h1v0.1h-0.4v1.1H22.1L22.1,22.5z M22.9,22.5v-1.2h0.2
	l0.3,0.9c0,0.1,0,0.1,0.1,0.2c0,0,0-0.1,0.1-0.2l0.3-0.8H24v1.2h-0.2v-1l-0.4,1h-0.1l-0.3-1v1H22.9z"/>
</svg>
