<?xml version="1.0" encoding="utf-8"?>
<!-- Generator: Adobe Illustrator 18.1.1, SVG Export Plug-In . SVG Version: 6.00 Build 0)  -->
<svg version="1.1" id="Layer_1" xmlns="http://www.w3.org/2000/svg" xmlns:xlink="http://www.w3.org/1999/xlink" x="0px" y="0px"
	 viewBox="0 0 24 24" enable-background="new 0 0 24 24" xml:space="preserve">
<g>
	<polygon fill-rule="evenodd" clip-rule="evenodd" fill="#FFFFFF" points="8.8,6 8.8,3.4 10.4,2.4 12.7,0.8 13.7,0.8 14.7,1.9 
		15.3,5.5 14.5,6.8 11.5,6.7 8.8,6 	"/>
	<polygon fill-rule="evenodd" clip-rule="evenodd" fill="#FFFFFF" points="5.6,13.7 6.5,11.4 8.1,9.5 8.9,7.9 9.2,7.3 15.1,6.4 
		16.3,8.3 19.5,16.1 18.4,17.5 15.4,22.5 14.7,22.6 9.3,22.8 5.5,18.6 4.9,15.1 5.6,13.7 	"/>
	<path fill-rule="evenodd" clip-rule="evenodd" fill="#FFD300" d="M13.1,7.8c0,0-0.2,0,0.3-0.2C14,7.5,14,7.4,14.2,7.2
		c0.2-0.2,0.2-0.5,0.2-0.9c0-0.4,0.2-1.5,0.2-1.8c0-0.3-0.7-1.5-1-1.6c-0.3-0.2-3.3-0.4-3.3-0.4L9.3,3.2L8.6,3.8l0.2,2.1
		c0,0-0.2,0.7-0.2,0.9c0,0.3,0.4,0.6,0.6,0.7c0.2,0.2,0.7,0.8,0.9,1c0.2,0.2,0.2,0.4,0.7,0.2c0.5-0.2,0.7-0.2,1.1-0.4
		C12.3,8.1,13.1,7.8,13.1,7.8L13.1,7.8z"/>
	<path fill-rule="evenodd" clip-rule="evenodd" fill="#FFFFFF" d="M11.3,4.4c0.1-0.3,0.3-0.9,0.5-1.1C12.2,3.2,12.7,3,13.1,3
		c0.4,0,1,0.4,1.2,0.7c0.2,0.3,0.2,1.4,0.2,1.4L14.3,6l-0.5,0l-1.2-0.5h-0.2c0,0-0.2,0.1-0.8-0.2C11.1,4.9,11.2,4.8,11.3,4.4
		L11.3,4.4z"/>
	<path fill-rule="evenodd" clip-rule="evenodd" fill="#FFFFFF" d="M10.1,5.3c0,0,0.1,0,0.1-0.1c0.2-0.1,0.8-0.3,0.8-0.3
		s0.5-1.3,0.1-1.8c-0.4-0.5-1.4-0.4-1.4-0.4s-1,0.6-1,0.8c0,0.2,0.1,1.1,0.1,1.2C8.8,4.8,9,6,9,6l0.3-0.2l0.5-0.4
		C9.9,5.5,10,5.4,10.1,5.3L10.1,5.3z"/>
	<path fill-rule="evenodd" clip-rule="evenodd" fill="#FFD300" d="M17.5,17.1c0,0,0.2,0,0.6,0c0.1,0,0.2,0,0.2,0
		c0.4,0,0.8,0.1,1.2,0.1c0.3,0,0.7,0.2,0.7,0.5c0,0.5-0.1,1,0.3,1.2c0.4,0.3,1.3,0.9,1.3,0.9l0.3,0.5l-0.8,0.7l-4,2.4L15.5,23v-1.5
		l0.1-2l-0.2-1.8l0.3-0.7l0.8-0.2L17.5,17.1L17.5,17.1z"/>
	<path fill-rule="evenodd" clip-rule="evenodd" fill="#FFD300" d="M5.9,16.2c0,0-0.8,0.2-0.8,0.2c-0.3,0-0.8,0.3-0.8,0.6
		c0,0.2,0,0.4-0.1,0.5c-0.1,0.1-0.2,0.3-0.2,0.4c-0.1,0.1-0.1,0.3-0.3,0.4c-0.2,0-0.8,0.1-0.8,0.1H2.4L2,18.9L2.3,20l-0.1,0.9
		l-0.3,1l0.7,0.3l5,1.3l1.1-0.3l0.6-1.4l-0.1-0.5l-0.5-1.1C8.6,20.2,6.3,16.7,5.9,16.2L5.9,16.2z"/>
	<path fill-rule="evenodd" clip-rule="evenodd" fill="#231F20" d="M8.5,4c-0.1-2.7,1-3.9,3.2-4c2.2,0,3.6,1.1,3.9,2.6
		c0.3,1.5,0.1,3.5,0.7,4.6c0.6,1,0.9,1.8,1.9,3c1,1.2,1.6,2.4,1.8,3.9c0.3,1.5,0.4,2.2-0.3,2.9c-0.7,0.8-2,2-3,0.6
		c-0.5-0.7-0.5-1.6,0.3-1.8c0.5-0.1,0.9-0.1,1.3,0.1c0.4,0.2,0.5,0.1,0-0.2c-0.5-0.3-0.6,0-0.4-0.6c0.2-0.6,0.4-1.6-0.1-2.7
		c-0.2-0.5-0.9-1.9-1.5-2.3c-0.1,0-0.2-0.1-0.1,0c0.2,0.2,1.1,1.6,1.4,2.4c0.3,0.9,0.3,1.7,0.2,2.3c-0.1,0.5-0.4,0.7-0.7,0.7
		c-0.3,0-0.6,0.1-0.6-0.6c0-0.7,0.1-1.8-0.3-2.7c-0.4-0.9-0.8-1.5-0.9-1.9c-0.1-0.4-0.3-1.4-0.8-2c-0.5-0.6-0.7-1-0.4-1.6
		c0.2-0.7,0.1-0.8-0.4-1c-0.5-0.1-1.1-0.3-1.3-0.7c-0.2-0.3-0.1-1,0.3-1.1c0.4-0.2,1,0.1,1,0.5c0,0.5-0.2,0.7-0.1,0.8
		c0.1,0.1,0.4,0.3,0.5,0.1c0.2-0.2,0.2-0.7,0-1.3c-0.2-0.5-0.2-0.9-0.8-1c-0.6-0.1-0.8-0.1-1.1,0.3C11.7,4,11.6,4.6,11.7,5
		c0.1,0.4-0.1,0.2-0.4,0.2c-0.3,0-0.2,0-0.5,0c-0.3,0-0.2-0.2-0.2-0.5c0-0.3-0.1-0.9-0.5-1.2C9.7,3.3,9,3.6,9,4.6
		c0,1,0.4,1.5,0.6,1.1c0.2-0.4,0.1-0.2-0.1-0.3c-0.2-0.2-0.3-0.8-0.1-1C9.6,4.1,9.9,4.1,10,4.3c0.1,0.1,0.4,0.5,0.3,0.8
		c0,0.3-0.1,0.3-0.3,0.5C9.7,5.7,9.6,5.9,9.3,6C9,6.2,8.9,6.7,9.2,6.8C9.4,7,9.4,6.9,9.6,7.2c0.2,0.3,0.5,0.4,1.4,0.3
		c0.8-0.1,1.2-0.3,1.8-0.6c0.5-0.2,0.3-0.1,0.5-0.3c0.2-0.2,0.4,0.1,0.2,0.2c-0.2,0.2-0.8,0.3-1.2,0.5c-0.4,0.1-0.9,0.5-1.7,0.5
		c-0.8,0-0.3,0-0.5,0c-0.3,0-0.4,0-0.1,0.2c0.3,0.2,0.3,0.3,0.5,0.3c0.2,0.1,0.6,0.1,0.9-0.1c0.4-0.1,1.3-0.6,1.6-0.8
		c0.3-0.2,0.5,0.1,0.2,0.3C13,8,12.9,8,12.6,8.1c-0.3,0.2-0.8,0.5-1.1,0.8c-0.3,0.3-0.4,0.3-0.8,0.4c-0.4,0-0.7-0.4-0.9-0.6
		C9.6,8.5,9.6,8.4,9.4,8.1C9.2,7.9,9.2,7.9,9.1,8.2c0,0.3-0.3,0.9-0.6,1.4c-0.3,0.4-0.3,1-0.2,1.4c0,0.4-0.1,0.4-0.4,0.9
		c-0.3,0.4-0.8,1.7-0.9,2.2c-0.1,0.4-0.2,1.3-0.1,1.8c0,0.5-0.1,0.6-0.5,0.3C6.1,15.6,6,15.3,6,14.8c0-0.4,0.1-0.7,0.1-0.9
		c0.1-0.2,0-0.3-0.1-0.1c-0.2,0.4-0.3,1.2-0.2,1.4c0.1,0.3,0.1,0.7,0.7,1.3c0.7,0.6,1.6,1.5,2.4,2.1c0.8,0.6,1.1,1.3-0.1,1.8
		c0.7,1,1.1,1.5,0.8,2.2c0.7-0.4,0.4-1.3,0.1-1.5c-0.3-0.2-0.1-0.4,0.2-0.2c0.3,0.2,0.4,0.5,1.5,0.5c1.1,0,2.3-0.1,3-1.1
		c0.7-1,0.8-0.2,0.6,0.4c-0.2,0.6-0.6,1.8,0.1,1.7c0.1-0.7,0.3-1.4,0.3-2.2c0-0.8,0.1-1.2,0-2.4c-0.1-1.1,0.4-1.2,0.9-1.2
		c0.5,0,0.3,0.3,0,0.3c-0.3,0-0.7,0.1-0.7,0.9c0,0.8,0,0.7,0.1,1.5c0.1,0.7,0.2,1,0,1.8c-0.1,0.8-0.2,1.3,0.3,1.8
		c0.5,0.5,1.4,0.4,1.8,0c0.4-0.3,1.2-1.1,1.9-1.3c0.7-0.2,1.5-0.4,1.9-0.8c0.4-0.4,0.3-0.7-0.1-0.9c-0.4-0.2-0.8-0.1-1.1-0.5
		c-0.3-0.4-0.5-1.2-0.4-1.6c0.1-0.4,0.3-0.2,0.3,0.1c0,0.3,0,0.6,0.3,1c0.3,0.4,0.6,0.6,1.1,0.9c0.5,0.3,0.8,0.8,0.2,1.2
		c-0.6,0.4-0.9,0.7-1.4,0.9C20,22,19.1,22.5,18.6,23c-0.5,0.5-0.8,0.9-1.8,0.9c-1,0-1.4-0.2-1.7-0.8c-0.2-0.4-0.3-0.3-0.8-0.4
		c-0.5,0-2,0-3.2,0C10,22.8,9.6,23,9,23.4c-0.5,0.4-0.7,0.8-1.8,0.4c-1-0.3-1.6-0.7-3.1-1c-1.5-0.3-0.7-0.2-1.6-0.4
		c-0.9-0.2-0.9-0.6-0.7-1c0.1-0.4,0.4-0.9,0.2-1.7c-0.3-0.7-0.2-1.5,0.5-1.5c0.7,0,1.4,0.1,1.6-0.8c0.3-0.9,0.4-0.2,0.3,0
		c-0.1,0.2-0.1,0.9-0.7,1c-0.6,0.1-0.8,0-1.1,0c-0.4,0-0.5,0.3-0.3,0.7c0.2,0.4,0.4,0.9,0.4,1.3c0,0.4-0.1,0.5-0.4,0.9
		C2,21.8,2,21.9,2.5,22.1c0.5,0.1,1.4,0.4,2.2,0.6c0.8,0.2,0.9,0.2,2.4,0.6c1.5,0.4,1.9-0.3,2-1.1c0.1-0.8-0.4-1.6-1-2.4
		c-0.5-0.8-1.1-1.7-1.8-2.5c-0.7-0.8-1.1-0.9-1.4-0.7c-0.3,0.2-0.4,0.1-0.4-0.3c0-0.5-0.1-0.8,0.3-1.4C5.2,14,5.6,13.3,6,12.2
		c0.4-1.1,0.8-1.4,1.4-2.3c0.7-1,0.4-0.6,0.9-1.3C8.8,7.9,8.6,8,8.6,7C8.5,5.9,8.5,5.3,8.5,4L8.5,4z M6.5,12.1
		c0.1,0.1,0.2-0.2,0.4-0.3c0.1-0.1,0.2-0.3,0.2-0.5c0-0.1-0.2-0.1-0.2,0c-0.1,0.1-0.1,0.2-0.1,0.4C6.7,11.9,6.4,12,6.5,12.1
		L6.5,12.1z M15.2,7.9c0.2,0.2,0.3,0.3,0.5,0.1c0.1-0.3,0.1-0.4-0.2-0.5c-0.3-0.1-0.4-0.2-0.6-0.4c-0.1-0.2-0.2,0.1-0.1,0.4
		C15,7.8,15,7.8,15.2,7.9L15.2,7.9z M10.6,5.4c-0.1,0-0.3,0-0.4,0.1c0,0,0,0.2,0,0.2c0.1,0,0.2-0.1,0.2-0.1c0,0,0-0.1,0.1-0.1
		C10.5,5.5,10.6,5.5,10.6,5.4C10.7,5.5,10.7,5.4,10.6,5.4L10.6,5.4z M11.4,5.5c0.1,0.1,0.2,0.1,0.3,0.1c0,0,0.1,0.1,0.2,0
		C11.9,5.4,11.6,5.4,11.4,5.5C11.4,5.4,11.3,5.4,11.4,5.5L11.4,5.5z M12.8,4.5c0.1,0,0.3,0.2,0.3,0.5c0,0,0.1,0,0.1,0
		c0.1-0.1,0-0.2,0-0.4c0-0.1-0.2-0.2-0.3-0.3c-0.1,0-0.1,0-0.2,0C12.8,4.4,12.7,4.5,12.8,4.5L12.8,4.5z M9.8,4.4
		c-0.1,0-0.1,0.1-0.1,0.2C9.9,4.7,9.9,4.9,10,5.1c0,0.1,0.1,0,0.1,0c0.1-0.1,0-0.3-0.1-0.5C10,4.6,10,4.5,9.8,4.4
		C9.9,4.4,9.8,4.4,9.8,4.4L9.8,4.4z M13.7,1.4c-0.1-0.1-0.3-0.1-0.4,0c-0.1,0.1,0,0.3-0.1,0.4c0,0-0.1,0.1-0.1,0.1
		c0,0.1,0,0.1,0,0.2c0.1,0.1,0.3-0.1,0.5-0.2c0.1-0.1,0.3,0,0.4-0.1c0,0,0-0.1,0-0.1C13.9,1.5,13.8,1.5,13.7,1.4L13.7,1.4z"/>
	<path fill-rule="evenodd" clip-rule="evenodd" fill="#231F20" d="M17.3,17.3c0-0.1,0.1-0.2,0.1-0.3c0,0,0.1,0,0.1,0
		c0,0.1,0,0.3,0,0.4c0,0.1,0.1,0.1,0.2,0c0.1,0,0.2-0.2,0.2-0.2c0,0,0,0,0,0c0,0,0,0.1-0.1,0.1c0,0-0.1,0-0.1,0c0,0,0-0.3,0-0.4
		c0-0.1-0.1-0.1-0.2-0.1C17.3,16.9,17.3,17.1,17.3,17.3L17.3,17.3l0-0.3L17.1,17l0,0.6l0.2-0.1C17.2,17.5,17.2,17.4,17.3,17.3
		L17.3,17.3z"/>
	<path fill-rule="evenodd" clip-rule="evenodd" fill="#231F20" d="M18.1,17.4c0.1,0,0.2-0.2,0.2-0.2c0,0,0,0,0,0c0,0,0,0.1-0.1,0.1
		c0,0-0.1,0-0.1,0c0,0,0-0.1,0-0.2l0-0.3l0.2-0.1l0-0.1l-0.2,0.1l0-0.3l-0.2,0.1l0,0.6c0,0.1,0,0.1,0,0.2
		C17.9,17.4,18,17.4,18.1,17.4L18.1,17.4z"/>
</g>
</svg>
