<?xml version="1.0" encoding="utf-8"?>
<!-- Generator: Adobe Illustrator 18.1.1, SVG Export Plug-In . SVG Version: 6.00 Build 0)  -->
<svg version="1.1" id="Layer_1" xmlns="http://www.w3.org/2000/svg" xmlns:xlink="http://www.w3.org/1999/xlink" x="0px" y="0px"
	 viewBox="0 0 24 24" enable-background="new 0 0 24 24" xml:space="preserve">
<g id="_x3C_Grupo_x3E___x2F__BODY">
	<linearGradient id="base_x27_s_outline_1_" gradientUnits="userSpaceOnUse" x1="12" y1="5.8292" x2="12" y2="18.1708">
		<stop  offset="0" style="stop-color:#666666"/>
		<stop  offset="0.5" style="stop-color:#CCCCCC"/>
		<stop  offset="0.5897" style="stop-color:#C0C0C0"/>
		<stop  offset="0.75" style="stop-color:#A2A2A2"/>
		<stop  offset="0.9613" style="stop-color:#707070"/>
		<stop  offset="1" style="stop-color:#666666"/>
	</linearGradient>
	<path id="base_x27_s_outline" fill="url(#base_x27_s_outline_1_)" d="M19.5,18.2c-1.2,0-2.5-0.3-3.2-0.8l-0.1-0.1l0-0.1l0.5-1.8
		l0.1-0.2l0.2,0.1c0.6,0.3,1.6,0.7,2.7,0.7c1.2,0,1.9-0.5,1.9-1.4c0-0.8-0.5-1.3-1.9-1.8c-2.2-0.8-3.2-1.9-3.2-3.5
		c0-2.1,1.7-3.5,4.3-3.5c1.4,0,2.3,0.3,2.8,0.6l0.1,0.1l0,0.1L23,8.4L23,8.6l-0.2-0.1C22.3,8.2,21.6,8,20.6,8
		c-1.3,0-1.8,0.7-1.8,1.2c0,0.8,0.6,1.2,2.1,1.8c2.1,0.8,3.1,1.9,3.1,3.6C24,16.2,22.8,18.2,19.5,18.2L19.5,18.2z M9.5,18.2
		c-3.2,0-5.5-2.5-5.5-6c0-3.7,2.3-6.2,5.7-6.2c3.3,0,5.5,2.4,5.5,6C15.2,15.7,12.9,18.2,9.5,18.2L9.5,18.2z M9.6,7.9
		c-1.9,0-3.1,1.6-3.1,4.2c0,2.4,1.2,4.1,3.1,4.1c1.8,0,3-1.7,3-4.2C12.6,10,11.7,7.9,9.6,7.9L9.6,7.9z M2.5,18H2.4H0.3H0.1v-0.2V9.5
		V9.3h0.2h2.1h0.2v0.2v8.4V18L2.5,18z M1.3,8.4C0.6,8.4,0,7.9,0,7.1c0-0.8,0.6-1.3,1.3-1.3c0.8,0,1.3,0.5,1.3,1.3
		C2.7,7.9,2.1,8.4,1.3,8.4L1.3,8.4z"/>
	<linearGradient id="base_1_" gradientUnits="userSpaceOnUse" x1="11.9996" y1="18.0183" x2="11.9996" y2="5.9817">
		<stop  offset="5.000000e-002" style="stop-color:#CCCCCC"/>
		<stop  offset="6.290945e-002" style="stop-color:#C3C3C3"/>
		<stop  offset="0.1307" style="stop-color:#9B9B9B"/>
		<stop  offset="0.2028" style="stop-color:#787878"/>
		<stop  offset="0.2786" style="stop-color:#5C5C5C"/>
		<stop  offset="0.3596" style="stop-color:#464646"/>
		<stop  offset="0.4481" style="stop-color:#363736"/>
		<stop  offset="0.5499" style="stop-color:#2D2E2D"/>
		<stop  offset="0.6946" style="stop-color:#2A2B2A"/>
	</linearGradient>
	<path id="base" fill="url(#base_1_)" d="M1.3,6C0.6,6,0.2,6.5,0.2,7.1c0,0.6,0.5,1.1,1.2,1.1c0.7,0,1.2-0.5,1.2-1.1
		C2.5,6.5,2.1,6,1.3,6z M0.3,17.8h2.1V9.5H0.3V17.8z M9.7,6.1c-3.3,0-5.5,2.5-5.5,6.1c0,3.4,2.1,5.9,5.3,5.9c3.2,0,5.5-2.2,5.5-6.1
		C15,8.6,13,6.1,9.7,6.1z M9.6,16.3c-2,0-3.2-1.9-3.2-4.2c0-2.4,1.1-4.3,3.2-4.3c2.1,0,3.2,2.1,3.2,4.2
		C12.8,14.4,11.6,16.3,9.6,16.3z M20.9,11.1c-1.5-0.6-2.2-1-2.2-1.9c0-0.7,0.6-1.4,1.9-1.4c1.1,0,1.9,0.3,2.3,0.5l0.5-1.7
		c-0.6-0.3-1.5-0.6-2.8-0.6c-2.5,0-4.1,1.4-4.1,3.3c0,1.7,1.2,2.7,3.1,3.4c1.5,0.5,2,1,2,1.9c0,0.9-0.8,1.6-2.1,1.6
		c-1.1,0-2.1-0.3-2.8-0.7l-0.5,1.8c0.6,0.4,1.9,0.7,3.1,0.7c3,0,4.4-1.6,4.4-3.5C23.8,12.9,22.9,11.9,20.9,11.1z"/>
</g>
<defs>
	<filter id="Adobe_OpacityMaskFilter" filterUnits="userSpaceOnUse" x="0.2" y="6" width="23.2" height="9">
		<feFlood  style="flood-color:white;flood-opacity:1" result="back"/>
		<feBlend  in="SourceGraphic" in2="back" mode="normal"/>
	</filter>
</defs>
<mask maskUnits="userSpaceOnUse" x="0.2" y="6" width="23.2" height="9" id="SHINING_1_">
	<g filter="url(#Adobe_OpacityMaskFilter)">
		<linearGradient id="SVGID_1_" gradientUnits="userSpaceOnUse" x1="19.9495" y1="11.1654" x2="19.9495" y2="6.0675">
			<stop  offset="0.2" style="stop-color:#FFFFFF"/>
			<stop  offset="1" style="stop-color:#000000"/>
		</linearGradient>
		<path fill="url(#SVGID_1_)" d="M20.6,6.1c-2.5,0-4.1,1.4-4.1,3.3c0,0.7,0.2,1.3,0.6,1.8c1-0.1,2.1-0.2,3.2-0.3
			c-1.1-0.5-1.6-0.9-1.6-1.7c0-0.7,0.6-1.4,1.9-1.4c1.1,0,1.9,0.3,2.3,0.5l0.5-1.7C22.8,6.3,21.9,6.1,20.6,6.1z"/>
		<linearGradient id="SVGID_2_" gradientUnits="userSpaceOnUse" x1="9.5792" y1="13.6402" x2="9.5792" y2="6.0503">
			<stop  offset="0.2" style="stop-color:#FFFFFF"/>
			<stop  offset="1" style="stop-color:#000000"/>
		</linearGradient>
		<path fill="url(#SVGID_2_)" d="M9.7,6.1c-3.3,0-5.5,2.5-5.5,6.1c0,0.5,0.1,1,0.1,1.5c0.7-0.2,1.4-0.4,2.2-0.6c0-0.3-0.1-0.6-0.1-1
			c0-2.4,1.1-4.3,3.2-4.3c2,0,3.1,1.9,3.2,4c0.7-0.1,1.5-0.2,2.2-0.3C14.8,8.4,12.9,6.1,9.7,6.1z"/>
		<g>
			<g>
				<linearGradient id="SVGID_3_" gradientUnits="userSpaceOnUse" x1="1.337" y1="14.9791" x2="1.337" y2="5.9817">
					<stop  offset="0.2" style="stop-color:#FFFFFF"/>
					<stop  offset="1" style="stop-color:#000000"/>
				</linearGradient>
				<path fill="url(#SVGID_3_)" d="M0.3,15c0.7-0.3,1.4-0.5,2.1-0.7V9.5H0.3V15z M1.3,8.3c0.7,0,1.2-0.5,1.2-1.1
					C2.5,6.5,2.1,6,1.3,6C0.6,6,0.2,6.5,0.2,7.1C0.2,7.8,0.6,8.3,1.3,8.3z"/>
			</g>
		</g>
	</g>
</mask>
<path id="SHINING" opacity="0.8" mask="url(#SHINING_1_)" fill="#FFFFFF" d="M0.3,15c0.7-0.3,1.4-0.5,2.1-0.7V9.5H0.3V15z M20.6,6.1
	c-2.5,0-4.1,1.4-4.1,3.3c0,0.7,0.2,1.3,0.6,1.8c1-0.1,2.1-0.2,3.2-0.3c-1.1-0.5-1.6-0.9-1.6-1.7c0-0.7,0.6-1.4,1.9-1.4
	c1.1,0,1.9,0.3,2.3,0.5l0.5-1.7C22.8,6.3,21.9,6.1,20.6,6.1z M9.7,6.1c-3.3,0-5.5,2.5-5.5,6.1c0,0.5,0.1,1,0.1,1.5
	c0.7-0.2,1.4-0.4,2.2-0.6c0-0.3-0.1-0.6-0.1-1c0-2.4,1.1-4.3,3.2-4.3c2,0,3.1,1.9,3.2,4c0.7-0.1,1.5-0.2,2.2-0.3
	C14.8,8.4,12.9,6.1,9.7,6.1z M1.3,6C0.6,6,0.2,6.5,0.2,7.1c0,0.6,0.5,1.1,1.2,1.1c0.7,0,1.2-0.5,1.2-1.1C2.5,6.5,2.1,6,1.3,6z"/>
</svg>
