<?xml version="1.0" encoding="utf-8"?>
<!-- Generator: Adobe Illustrator 18.1.1, SVG Export Plug-In . SVG Version: 6.00 Build 0)  -->
<svg version="1.1" id="Layer_1" xmlns="http://www.w3.org/2000/svg" xmlns:xlink="http://www.w3.org/1999/xlink" x="0px" y="0px"
	 viewBox="0 0 24 24" enable-background="new 0 0 24 24" xml:space="preserve">
<g>
	<g>
		<path fill="#85C808" d="M18.5,18.4c0,0.4-0.3,0.8-0.8,0.8H6.3c-0.4,0-0.8-0.3-0.8-0.8V8.2c0-0.4,0.3-0.8,0.8-0.8h11.4
			c0.4,0,0.8,0.3,0.8,0.8V18.4z"/>
		<rect x="5.5" y="7.4" fill="#85C808" width="13" height="5.4"/>
	</g>
	<g>
		<path fill="#85C808" d="M22,14.6c0,0.8-0.6,1.4-1.4,1.4l0,0c-0.8,0-1.4-0.6-1.4-1.4V8.3c0-0.8,0.6-1.4,1.4-1.4l0,0
			C21.4,7,22,7.6,22,8.3V14.6z"/>
		<path fill="#85C808" d="M4.8,14.6c0,0.8-0.6,1.4-1.4,1.4l0,0c-0.8,0-1.4-0.6-1.4-1.4V8.3C2,7.6,2.6,7,3.4,7l0,0
			c0.8,0,1.4,0.6,1.4,1.4V14.6z"/>
	</g>
	<path fill="#85C808" d="M5.5,6.6c0,0,0.1-5.5,6.5-5.5c6.3,0,6.5,5.5,6.5,5.5H5.5z"/>
	<g>
		<circle fill="#FFFFFF" cx="9.2" cy="3.8" r="0.8"/>
		<circle fill="#FFFFFF" cx="14.8" cy="3.8" r="0.8"/>
	</g>
	<g>
		<path fill="#85C808" d="M9,1.9c0,0,0.1,0,0.2,0l0,0c0.1,0,0.1-0.1,0.1-0.1L8,0c0,0-0.1,0-0.2,0l0,0c-0.1,0-0.1,0.1-0.1,0.1L9,1.9z
			"/>
		<path fill="#85C808" d="M15,1.9c0,0-0.1,0-0.2,0l0,0c-0.1,0-0.1-0.1-0.1-0.1L16,0c0,0,0.1,0,0.2,0l0,0c0.1,0,0.1,0.1,0.1,0.1
			L15,1.9z"/>
	</g>
	<g>
		<path fill="#85C808" d="M16.1,22.6c0,0.8-0.6,1.4-1.4,1.4l0,0c-0.8,0-1.4-0.6-1.4-1.4v-6.2c0-0.8,0.6-1.4,1.4-1.4l0,0
			c0.8,0,1.4,0.6,1.4,1.4V22.6z"/>
		<path fill="#85C808" d="M10.7,22.6c0,0.8-0.6,1.4-1.4,1.4l0,0c-0.8,0-1.4-0.6-1.4-1.4v-6.2c0-0.8,0.6-1.4,1.4-1.4l0,0
			c0.8,0,1.4,0.6,1.4,1.4V22.6z"/>
	</g>
</g>
</svg>
