<svg xmlns="http://www.w3.org/2000/svg" xmlns:xlink="http://www.w3.org/1999/xlink" preserveAspectRatio="xMidYMid" width="17.968" height="20.969" viewBox="0 0 17.968 20.969">
  <defs>
    <style>
      .cls-1 {
        fill: #999;
        fill-rule: evenodd;
      }
    </style>
  </defs>
  <path d="M16.754,14.267 C16.077,14.267 15.529,13.722 15.529,13.050 L15.529,7.843 C15.529,7.170 16.077,6.626 16.754,6.626 C17.431,6.626 17.979,7.170 17.979,7.843 L17.979,13.050 C17.979,13.722 17.431,14.267 16.754,14.267 ZM13.417,16.838 L12.483,16.838 C12.514,16.945 12.531,17.059 12.531,17.176 L12.531,17.243 L12.531,17.649 L12.531,19.746 C12.531,20.418 11.982,20.963 11.306,20.963 C10.629,20.963 10.080,20.418 10.080,19.746 L10.080,17.649 L10.080,17.243 L10.080,17.176 C10.080,17.058 10.097,16.945 10.128,16.838 L7.852,16.838 C7.882,16.945 7.900,17.059 7.900,17.176 L7.900,17.243 L7.900,17.649 L7.900,19.746 C7.900,20.418 7.352,20.963 6.675,20.963 C5.998,20.963 5.448,20.418 5.448,19.746 L5.448,17.649 L5.448,17.243 L5.448,17.176 C5.448,17.058 5.466,16.945 5.497,16.838 L4.563,16.838 C3.849,16.838 3.269,16.261 3.269,15.553 L3.269,8.464 L3.269,7.638 L3.269,6.626 L3.357,6.626 L14.623,6.626 L14.711,6.626 L14.711,7.638 L14.711,8.464 L14.711,15.553 C14.711,16.261 14.130,16.838 13.417,16.838 ZM6.177,1.753 L5.947,1.410 L5.719,1.072 L5.210,0.313 C5.148,0.220 5.173,0.094 5.267,0.032 C5.361,-0.030 5.488,-0.005 5.550,0.088 L6.097,0.902 L6.327,1.244 L6.559,1.591 C7.297,1.307 8.120,1.147 8.989,1.147 C9.859,1.147 10.682,1.307 11.421,1.591 L11.654,1.244 L11.884,0.902 L12.429,0.089 C12.492,-0.005 12.619,-0.030 12.714,0.032 C12.807,0.094 12.832,0.220 12.770,0.313 L12.260,1.072 L12.034,1.411 L11.803,1.753 C13.538,2.555 14.711,4.075 14.711,5.814 L3.269,5.814 C3.269,4.074 4.443,2.555 6.177,1.753 ZM11.441,4.191 C11.781,4.191 12.055,3.918 12.055,3.582 C12.055,3.246 11.781,2.974 11.441,2.974 C11.103,2.974 10.829,3.246 10.829,3.582 C10.829,3.918 11.103,4.191 11.441,4.191 ZM6.538,4.191 C6.877,4.191 7.151,3.918 7.151,3.582 C7.151,3.246 6.877,2.974 6.538,2.974 C6.199,2.974 5.925,3.246 5.925,3.582 C5.925,3.918 6.199,4.191 6.538,4.191 ZM1.226,14.267 C0.549,14.267 -0.000,13.722 -0.000,13.050 L-0.000,7.843 C-0.000,7.170 0.549,6.626 1.226,6.626 C1.903,6.626 2.452,7.170 2.452,7.843 L2.452,13.050 C2.452,13.722 1.902,14.267 1.226,14.267 Z" class="cls-1"/>
</svg>
