<svg xmlns="http://www.w3.org/2000/svg" xmlns:xlink="http://www.w3.org/1999/xlink" preserveAspectRatio="xMidYMid" width="17.062" height="21" viewBox="0 0 17.062 21">
  <defs>
    <style>
      .cls-1 {
        fill: #999;
        fill-rule: evenodd;
      }
    </style>
  </defs>
  <path d="M14.255,11.164 C14.283,14.338 17.035,15.393 17.067,15.408 C17.042,15.480 16.626,16.913 15.615,18.392 C14.742,19.671 13.837,20.942 12.409,20.968 C11.005,20.995 10.554,20.136 8.949,20.136 C7.344,20.136 6.843,20.943 5.515,20.995 C4.138,21.048 3.088,19.615 2.208,18.341 C0.407,15.736 -0.969,10.979 0.880,7.769 C1.795,6.174 3.436,5.164 5.215,5.137 C6.568,5.114 7.847,6.051 8.673,6.051 C9.500,6.051 11.054,4.923 12.685,5.089 C13.368,5.117 15.286,5.365 16.518,7.167 C16.420,7.232 14.228,8.506 14.255,11.164 ZM8.508,4.850 C8.349,3.644 8.942,2.391 9.620,1.604 C10.377,0.717 11.653,0.058 12.707,0.015 C12.842,1.243 12.347,2.477 11.616,3.365 C10.883,4.251 9.684,4.942 8.508,4.850 Z" class="cls-1"/>
</svg>
