<?xml version="1.0" encoding="utf-8"?>
<svg xmlns="http://www.w3.org/2000/svg"
	xmlns:xlink="http://www.w3.org/1999/xlink"
	width="21px" height="23px" viewBox="0 0 21 23">
<path fillRule="evenodd" 
d="M 12.28 9.97C 12.28 9.97 8.78 6.5 8.78 6.5 8.78 6.5 10.15 5.15 10.15 5.15 10.15 5.15 12.28 7.26 12.28 7.26 12.28 7.26 19.63-0.02 19.63-0.02 19.63-0.02 20.99 1.34 20.99 1.34 20.99 1.34 12.28 9.97 12.28 9.97ZM 9.58 11.3C 8.39 10.86 6.29 10.43 5.59 10.91 5.52 10.96 5.36 11.07 5.36 11.5 5.36 12.18 5.65 12.37 7.14 12.75 8.49 13.08 10.53 13.59 10.53 16.07 10.53 17.4 9.91 18.11 9.38 18.46 8.79 18.86 8.04 19 7.29 19 5.78 19 4.28 18.44 4.04 18.35 4.04 18.35 4.75 16.56 4.75 16.56 5.78 16.96 7.62 17.34 8.29 16.88 8.38 16.82 8.6 16.67 8.6 16.07 8.6 15.2 8.21 14.99 6.68 14.6 5.38 14.28 3.43 13.8 3.43 11.5 3.43 10.31 4.01 9.67 4.49 9.34 6.27 8.11 9.61 9.27 10.26 9.51 10.26 9.51 9.58 11.3 9.58 11.3ZM 13.6 16.51C 14.53 17.18 16.37 16.79 17 16.59 17 16.59 17.78 16.34 17.78 16.34 17.78 16.34 17.76 18.05 17.76 18.05 17.58 18.11 16.3 18.52 15.12 18.52 14.28 18.52 13.37 18.36 12.64 17.83 12.05 17.41 11.35 16.56 11.35 14.96 11.35 13.46 11.97 12.25 13.07 11.65 14.09 11.09 15.35 11.13 16.36 11.76 17.42 12.41 17.98 13.55 17.91 14.89 17.91 14.89 17.87 15.65 17.87 15.65 17.87 15.65 13.07 15.69 13.07 15.69 13.17 16.05 13.34 16.32 13.6 16.51ZM 16.18 14.04C 16.06 13.66 15.83 13.35 15.49 13.14 15.22 12.98 14.91 12.89 14.61 12.89 14.35 12.89 14.09 12.95 13.86 13.08 13.51 13.27 13.25 13.61 13.11 14.06 13.11 14.06 16.18 14.04 16.18 14.04ZM 1.93 21.08C 1.93 21.08 18.93 21.08 18.93 21.08 18.93 21.08 18.93 7.72 18.93 7.72 18.93 7.72 20.87 7.72 20.87 7.72 20.87 7.72 20.87 21.08 20.87 21.08 20.87 22.14 20 22.99 18.93 22.99 18.93 22.99 1.93 22.99 1.93 22.99 0.86 22.99-0 22.14-0 21.08-0 21.08-0 4.23-0 4.23-0 3.17 0.86 2.31 1.93 2.31 1.93 2.31 6.18 2.31 6.18 2.31 6.18 2.31 6.18 4.23 6.18 4.23 6.18 4.23 1.93 4.23 1.93 4.23 1.93 4.23 1.93 21.08 1.93 21.08Z" 
fill="#050505" />
</svg>