<?xml version="1.0" encoding="utf-8"?>
<!-- Generator: Adobe Illustrator 18.1.1, SVG Export Plug-In . SVG Version: 6.00 Build 0)  -->
<svg version="1.1" baseProfile="tiny" id="Layer_1" xmlns="http://www.w3.org/2000/svg" xmlns:xlink="http://www.w3.org/1999/xlink"
	 x="0px" y="0px" viewBox="0 0 32 32" xml:space="preserve">
<path fill="#050505" d="M21.4,30.6H10.6c-1.7,0-3.7-1.1-4.6-2.6l-5.4-9.3c-0.8-1.5-0.8-3.8,0-5.3L6,4c0.8-1.5,2.8-2.6,4.6-2.6h10.8
	c1.7,0,3.7,1.1,4.6,2.6l5.4,9.4c0.8,1.5,0.8,3.8,0,5.2L26,28C25.1,29.4,23.1,30.6,21.4,30.6z M10.6,3.2c-1.1,0-2.5,0.8-3,1.7
	l-5.4,9.4c-0.5,0.9-0.5,2.6,0,3.5l5.4,9.3c0.5,0.9,1.9,1.7,3,1.7h10.8c1.1,0,2.5-0.8,3-1.7l5.4-9.4c0.5-0.9,0.5-2.5,0-3.5l-5.4-9.4
	c-0.5-0.9-2-1.7-3-1.7H10.6z"/>
<path fill="#050505" d="M14.4,25c0,0.2-0.1,0.3-0.3,0.3h-2.4c-0.7,0-1.5-0.3-1.8-0.9l0,0.1c0,0,0,0,0,0l-3.3-5.6L5.5,17
	c-0.3-0.6-0.3-1.5,0-2.1l1.1-1.8h0l0.5-0.9L9.3,16l5.1,9l-0.1,0v0C14.2,25,14.4,25,14.4,25z"/>
<path fill="#050505" d="M26.5,17l-1.1,1.9l-0.5,0.9l0,0l0,0L22.7,16l-5.2-9l0,0l0,0c0-0.1,0-0.1,0-0.2c0-0.2,0.2-0.4,0.4-0.4h2.4
	c0.7,0,1.5,0.4,1.8,1l3.3,5.7l1.1,1.8C26.8,15.5,26.9,16.4,26.5,17z"/>
<path fill="#050505" d="M14.5,6.8c0,0.1,0,0.1,0,0.2c0,0,0,0,0,0l-3,5.1l-1.1,1.8h0l-0.6,1.2l-2.2-3.8l0.6-1l1.7-2.9
	c0.4-0.6,1.2-1,1.8-1h2.4C14.3,6.4,14.5,6.6,14.5,6.8z"/>
<path fill="#050505" d="M24.4,20.6l-0.6,1l-1.7,2.9c0,0,0,0,0,0l0-0.1c-0.4,0.6-1.2,0.9-1.8,0.9h-2.4c-0.2,0-0.4-0.1-0.4-0.3
	c0-0.1,0-0.1,0-0.1c0,0,0,0,0,0l3-5.2l1.1-1.8l0.6-1.1l1.9,3.4L24.4,20.6z"/>
</svg>
