<svg width="17" height="16" xmlns="http://www.w3.org/2000/svg">

    <g>
        <path stroke="null" id="svg_1" d="m13.2885,1.74936c-1.88166,-1.5221 -6.04402,-2.27562 -9.16403,-0.09042c-2.92702,1.83764 -3.01347,4.93271 -3.01347,4.93271c1.05039,1.77453 2.15908,3.34562 6.1576,2.65803c-0.41614,-2.47342 0.50459,-8.3744 6.0199,-7.50032l0,0z" class="st0"/>
        <path stroke="null" id="svg_2" d="m10.69145,8.71807c-1.97159,1.61387 -7.76122,3.91412 -9.62884,-1.03857c-0.44573,2.30594 0.7923,6.14411 4.21948,7.59374c3.07099,1.40502 5.84354,-0.08069 5.84354,-0.08069c1.16774,-1.42875 2.0024,-3.78785 -0.43417,-6.47448" class="st0"/>
        <path stroke="null" id="svg_3" d="m8.318,6.09252c2.35273,0.89736 7.15527,4.69659 3.81187,8.86098c2.20097,-0.78956 4.78275,-3.81088 4.35104,-7.54796c-0.22057,-3.39619 -2.82308,-5.00542 -2.82308,-5.00542c-2.00302,-0.29232 -4.29731,0.06118 -5.33982,3.6924" class="st0"/>
    </g>
</svg>