<svg xmlns="http://www.w3.org/2000/svg" width="17" height="16"><path fill-rule="evenodd" fill="#313131" d="M17.003 12.992a3.484 3.484 0 0 1-.245 1.063c-.018.044-.035.086-.056.125a2.03 2.03 0 0 1-.07.14 1.606 1.606 0 0 1-.075.135c-.024.043-.052.085-.08.128a2.413 2.413 0 0 1-.297.389c-.028.028-.055.061-.084.089a2.877 2.877 0 0 1-.22.207c-.038.032-.08.064-.117.097-.121.092-.25.174-.381.249l-.059.031c-.045.022-.09.047-.138.068-.049.022-.1.047-.149.068a3.947 3.947 0 0 1-.332.115l-.027.007-.302.064-.017.004c-.044.003-.092.01-.138.014l-.296.017H7.641a3.078 3.078 0 0 1-.599-.46 3.017 3.017 0 0 1-.552-.727 3.291 3.291 0 0 1-.322-.835 3.275 3.275 0 0 1 .322-2.368l.107-.188h5.195a3.045 3.045 0 0 0 2.199-.943c.233-.241.429-.515.577-.823.18-.367.298-.773.326-1.206.007-.078.01-.156.01-.238v-.045l.077.134 1.614 2.885a.688.688 0 0 1 .037.078c.026.047.049.094.07.14.024.046.046.093.063.139.02.05.037.1.055.147.018.05.034.099.048.149.018.05.031.099.045.153.014.057.027.119.038.178.01.054.021.108.028.161.006.042.01.09.014.132.007.043.01.082.01.129.004.053.007.107.007.159v.04c0 .068-.003.136-.007.199zm-3.774-3.406a3.045 3.045 0 0 1-2.199.943L9.133 7.007c-.284-.507-1.589-2.059-2.05-2.33a3.058 3.058 0 0 0-1.522-.428h-.037c-.474 0-.954.114-1.4.349l1.68-3.002c.031-.054.062-.104.097-.154a3.262 3.262 0 0 1 .535-.638 3.984 3.984 0 0 1 .329-.263c.06-.043.12-.083.183-.119l.048-.028c.1-.057.201-.107.305-.15l.073-.032.146-.053c.123-.044.254-.079.386-.104A2.85 2.85 0 0 1 8.3.002l.198-.007a3.041 3.041 0 0 1 2.14.877c.222.218.408.463.556.731 0-.003 0-.003.003-.007l2.945 5.678v.045c0 .082-.155 1.077-.335 1.444a3.164 3.164 0 0 1-.578.823zm-7.88-4.442c.533.007 1.06.153 1.522.429.461.27.861.669 1.145 1.176l.27.482-2.662 4.193-.108.188a3.275 3.275 0 0 0-.322 2.368c.07.293.178.574.322.835.145.267.331.513.553.727a3.072 3.072 0 0 0 .598.46H3.103c-.104 0-.211-.006-.318-.017-.045-.004-.093-.011-.137-.014a3.255 3.255 0 0 1-.347-.075 3.947 3.947 0 0 1-.332-.115c-.049-.021-.1-.046-.148-.068-.049-.021-.094-.046-.138-.068-.022-.01-.039-.021-.06-.031a3.402 3.402 0 0 1-.38-.249c-.038-.033-.079-.065-.117-.097l-.221-.207c-.028-.028-.056-.061-.084-.089l-.297-.389a2.986 2.986 0 0 1-.08-.128l-.311-.71a3.596 3.596 0 0 1-.134-.753 3.167 3.167 0 0 1-.007-.199v-.04c0-.052.003-.106.007-.159 0-.047.003-.086.01-.129.004-.042.007-.09.013-.132.008-.053.018-.107.028-.161a2.116 2.116 0 0 1 .083-.331c.014-.05.031-.099.048-.149.019-.047.035-.097.056-.147.017-.046.038-.093.063-.139.01-.022.017-.041.026-.058l.043-.082a.688.688 0 0 1 .037-.078l3.506-5.695a3.01 3.01 0 0 1 1.4-.349h.037z"/></svg>