<?xml version="1.0" encoding="utf-8"?>
<svg xmlns="http://www.w3.org/2000/svg"
	xmlns:xlink="http://www.w3.org/1999/xlink"
	width="25px" height="22px" viewBox="0 0 25 22">
<path fillRule="evenodd" d="M 24.31 12.83C 24.31 12.83 20.14 20.19 20.14 20.19 19.59 21.18 18.18 22 17 22 17 22 8.67 22 8.67 22 7.49 22 6.08 21.18 5.53 20.18 5.53 20.18 1.38 12.93 1.38 12.93 0.82 11.92 0.82 10.24 1.37 9.24 1.37 9.24 5.54 1.89 5.54 1.89 6.1 0.85 7.51-0 8.67-0 8.67-0 17-0 17-0 18.16-0 19.6 0.83 20.14 1.82 20.14 1.82 24.3 9.15 24.3 9.15 24.85 10.26 24.84 11.86 24.31 12.83ZM 22.63 10.06C 22.63 10.06 18.49 2.77 18.49 2.77 18.28 2.38 17.46 1.92 17 1.92 17 1.92 8.67 1.92 8.67 1.92 8.2 1.92 7.43 2.4 7.19 2.83 7.19 2.83 3.02 10.19 3.02 10.19 2.8 10.59 2.8 11.57 3.03 11.98 3.03 11.98 7.18 19.23 7.18 19.23 7.39 19.61 8.13 20.08 8.67 20.08 8.67 20.08 17 20.08 17 20.08 17.54 20.08 18.28 19.61 18.48 19.24 18.48 19.24 22.65 11.89 22.65 11.89 22.86 11.51 22.89 10.61 22.63 10.06ZM 19.59 13.85C 19.59 13.85 13.89 4.32 13.81 4.32 13.81 4.32 15.66 4.32 15.66 4.32 16.2 4.32 17.05 4.95 17.05 4.95 17.05 4.95 19.59 9.32 19.59 9.32 19.59 9.32 20.44 10.8 20.44 10.8 20.67 11.27 20.67 11.98 20.44 12.45 20.44 12.45 19.59 13.85 19.59 13.85ZM 8.62 17.6C 8.62 17.6 8.62 17.68 8.62 17.68 8.62 17.68 6.08 13.3 6.08 13.3 6.08 13.3 5.23 11.82 5.23 11.82 5 11.35 5 10.65 5.23 10.18 5.23 10.18 6.08 8.77 6.08 8.77 6.08 8.77 11.79 18.3 11.86 18.3 11.86 18.3 10.01 18.3 10.01 18.3 9.47 18.3 8.86 18.07 8.62 17.6ZM 6.85 8.15C 6.85 8.15 7.31 7.37 7.31 7.37 7.31 7.37 8.62 5.1 8.62 5.1 8.93 4.63 9.55 4.32 10.01 4.32 10.01 4.32 11.38 4.32 11.38 4.32 11.38 4.32 7.97 10.11 7.97 10.11 7.97 10.11 6.85 8.15 6.85 8.15ZM 19.08 14.48C 19.08 14.48 18.62 15.26 18.62 15.26 18.62 15.26 17.3 17.52 17.3 17.52 17 17.99 16.38 18.3 15.92 18.3 15.92 18.3 14.55 18.3 14.55 18.3 14.55 18.3 17.96 12.52 17.96 12.52 17.96 12.52 19.08 14.48 19.08 14.48Z" fill="rgb(153,153,153)"/></svg>