<?xml version="1.0" encoding="utf-8"?>
<!-- Generator: Adobe Illustrator 19.0.0, SVG Export Plug-In . SVG Version: 6.00 Build 0)  -->
<svg version="1.1" id="Layer_1" xmlns="http://www.w3.org/2000/svg" xmlns:xlink="http://www.w3.org/1999/xlink" x="0px" y="0px"
	 viewBox="-139 94 512 514" style="enable-background:new -139 94 512 514;" width="28px" height="28px" xml:space="preserve">
<path fill-rule="evenodd" clip-rule="evenodd" fill="#3f5161" d="M127.7,169.8h-21.3C22.9,175.3-43,244.7-43,329.5v202.7h320V329.5C277,244.7,211.1,175.3,127.7,169.8z M255.7,510.8H-21.7
	V329.5c0-18.7,3.7-36.9,10.9-54c7-16.5,17-31.3,29.8-44.1c12.7-12.7,27.6-22.7,44.1-29.7c17.1-7.2,35.2-10.9,54-10.9
	c18.8,0,36.9,3.7,54,10.9c16.5,7,31.3,17,44.1,29.7c12.8,12.7,22.8,27.6,29.7,44.1c7.2,17.1,10.9,35.2,10.9,54V510.8z M117.6,263.5
	c-35.1,0-63.6,28.5-63.6,63.7c0,35.2,28.5,63.7,63.6,63.7h-1.2c35.2,0,63.7-28.5,63.7-63.7c0-35.2-28.5-63.7-63.7-63.7H117.6z
	 M156.6,327.1c0,21.1-16.5,40.2-40.2,40.2h1.2c-21,0-40.2-19.1-40.2-40.2c0-21.1,19.2-40.2,40.2-40.2h-1.2
	C137.4,286.9,156.6,306.1,156.6,327.1z M-64.3,295.1c-5.9,0-10.7,4.8-10.7,10.7v85.3c0,5.9,4.8,10.7,10.7,10.7
	c5.9,0,10.7-4.8,10.7-10.7v-85.3C-53.7,299.9-58.5,295.1-64.3,295.1z M309,305.8c0-5.9-4.8-10.7-10.7-10.7
	c-5.9,0-10.7,4.8-10.7,10.7v85.3c0,5.9,4.8,10.7,10.7,10.7c5.9,0,10.7-4.8,10.7-10.7V305.8z M181,433.8c-5.9,0-10.7,4.8-10.7,16
	H63.7c0-11.2-4.8-16-10.7-16c-5.9,0-10.7,4.8-10.7,10.7v10.7c0,5.9,4.8,10.7,10.7,10.7h128c5.9,0,10.7-4.8,10.7-10.7v-10.7
	C191.7,438.6,186.9,433.8,181,433.8z"/>
</svg>